<?xml version="1.0" encoding="UTF-8"?>
<svg width="64" height="64" viewBox="0 0 64 64" xmlns="http://www.w3.org/2000/svg">
  <path d="M8 48c12-18 23-26 48-32v32c-21 1-34 4-48 8z" fill="#d7d7d7" stroke="#222" stroke-width="4" stroke-linejoin="round"/>
  <path d="M13 47c7-10 14-16 24-21v22c-9 1-17 3-24 5z" fill="#d71920"/>
  <path d="M37 26c5-2 10-4 16-6v13c-6 1-11 2-16 4z" fill="#13a538"/>
  <path d="M37 38c5-2 10-3 16-4v12c-6 0-11 1-16 2z" fill="#2566d4"/>
  <path d="M37 26v22M13 47c13-17 24-23 40-27M13 53c14-4 27-7 40-7" fill="none" stroke="#222" stroke-width="2"/>
</svg>
